<?xml version="1.0" encoding="UTF-8" standalone="no"?>
<!-- Created with Inkscape (http://www.inkscape.org/) -->

<svg
   xmlns:dc="http://purl.org/dc/elements/1.1/"
   xmlns:cc="http://creativecommons.org/ns#"
   xmlns:rdf="http://www.w3.org/1999/02/22-rdf-syntax-ns#"
   xmlns:svg="http://www.w3.org/2000/svg"
   xmlns="http://www.w3.org/2000/svg"
   xmlns:sodipodi="http://sodipodi.sourceforge.net/DTD/sodipodi-0.dtd"
   xmlns:inkscape="http://www.inkscape.org/namespaces/inkscape"
   id="svg4136"
   version="1.1"
   inkscape:version="0.91 r13725"
   xml:space="preserve"
   width="30cm"
   height="30cm"
   viewBox="0 0 1062.9922 1062.9921"
   sodipodi:docname="laser_plotclock.svg"><metadata
     id="metadata4142"><rdf:RDF><cc:Work
         rdf:about=""><dc:format>image/svg+xml</dc:format><dc:type
           rdf:resource="http://purl.org/dc/dcmitype/StillImage" /><dc:title /></cc:Work></rdf:RDF></metadata><defs
     id="defs4140" /><sodipodi:namedview
     pagecolor="#ffffff"
     bordercolor="#666666"
     borderopacity="1"
     objecttolerance="10"
     gridtolerance="10"
     guidetolerance="10"
     inkscape:pageopacity="0"
     inkscape:pageshadow="2"
     inkscape:window-width="1858"
     inkscape:window-height="1057"
     id="namedview4138"
     showgrid="false"
     inkscape:zoom="1.8986229"
     inkscape:cx="172.21017"
     inkscape:cy="761.68341"
     inkscape:window-x="54"
     inkscape:window-y="-8"
     inkscape:window-maximized="1"
     inkscape:current-layer="g4144"
     units="cm" /><g
     id="g4144"
     inkscape:groupmode="layer"
     inkscape:label="151018_plotclock"
     transform="matrix(1.25,0,0,-1.25,0,1062.9922)"><path
       style="fill:none;stroke:#000000;stroke-width:1.00000012;stroke-linecap:round;stroke-linejoin:round;stroke-miterlimit:4;stroke-dasharray:none;stroke-opacity:1"
       d="m 140.90729,721.42585 0.84,-0.602 0.722,-0.957 0.36,-0.961 0.238,-1.082 -0.238,-1.199 -0.36,-0.961 -0.722,-0.84 -0.84,-0.719 -1.078,-0.48 -1.082,-0.121 -1.079,0.121 -1.082,0.48 -0.839,0.719 -0.719,0.84 -0.36,0.961 -0.121,1.199 0.121,1.082 0.36,0.961 0.719,0.957 0.839,0.602 1.082,0.48 1.079,0.121 1.082,-0.121 z"
       id="path4225"
       inkscape:connector-curvature="0" /><path
       style="fill:none;stroke:#000000;stroke-width:1.02176332;stroke-linecap:round;stroke-linejoin:round;stroke-miterlimit:4;stroke-dasharray:none;stroke-opacity:1"
       d="m 156.54198,737.63573 -35.59038,0 0,65.13824 35.59038,0 z"
       id="path4223"
       inkscape:connector-curvature="0" /><path
       style="fill:none;stroke:#000000;stroke-width:1.02183712;stroke-linecap:round;stroke-linejoin:round;stroke-miterlimit:4;stroke-dasharray:none;stroke-opacity:1"
       d="m 156.66294,698.97293 -35.4723,0 0,-65.13816 35.4723,0 z"
       id="path4162"
       inkscape:connector-curvature="0" /><g
       id="g4362"
       transform="matrix(-1,0,0,-1,471.28447,999.42437)"
       style="stroke-width:1.00000012;stroke-miterlimit:4;stroke-dasharray:none"><g
         id="g4186"
         transform="matrix(0,1,-1,0,0,378.0585)"
         style="stroke:#000000;stroke-width:1.00000012;stroke-miterlimit:4;stroke-dasharray:none;stroke-opacity:1"><path
           d="m -178,-439.508 0.84,0.598 0.722,0.961 0.36,0.961 0.238,1.078 -0.238,1.086 -0.36,1.078 -0.722,0.836 -0.84,0.605 -0.957,0.481 -1.082,0.117 -1.199,-0.117 -0.961,-0.481 -0.84,-0.605 -0.719,-0.836 -0.359,-1.078 -0.242,-1.086 0.242,-1.078 0.359,-0.961 0.719,-0.961 0.84,-0.598 0.961,-0.48 1.199,-0.121 1.082,0.121 0.957,0.48 z"
           style="fill:none;stroke:#000000;stroke-width:1.00000012;stroke-linecap:round;stroke-linejoin:round;stroke-miterlimit:4;stroke-dasharray:none;stroke-opacity:1"
           id="path4188"
           inkscape:connector-curvature="0" /></g><g
         id="g4190"
         transform="matrix(0,1,-1,0,0,378.0585)"
         style="stroke:#000000;stroke-width:1.00000012;stroke-miterlimit:4;stroke-dasharray:none;stroke-opacity:1"><path
           d="m -54.637,-432.305 -0.84,-0.605 -0.722,-0.836 -0.36,-1.078 -0.238,-1.086 0.238,-1.078 0.36,-0.961 0.722,-0.961 0.84,-0.598 0.957,-0.48 1.203,-0.121 1.079,0.121 0.96,0.48 0.84,0.598 0.719,0.961 0.359,0.961 0.243,1.078 -0.243,1.086 -0.359,1.078 -0.719,0.836 -0.84,0.605 -0.96,0.481 -1.079,0.117 -1.203,-0.117 -0.957,-0.481 z"
           style="fill:none;stroke:#000000;stroke-width:1.00000012;stroke-linecap:round;stroke-linejoin:round;stroke-miterlimit:4;stroke-dasharray:none;stroke-opacity:1"
           id="path4192"
           inkscape:connector-curvature="0" /></g><g
         id="g4194"
         transform="matrix(0,1,-1,0,0,378.0585)"
         style="stroke:#000000;stroke-width:1.00000012;stroke-miterlimit:4;stroke-dasharray:none;stroke-opacity:1"><path
           d="m -194.797,-444.426 2.637,-3.484 3.601,-2.754 4.082,-1.684 4.438,-0.601 4.32,0.601 4.082,1.684 3.598,2.754 103.441,0 3.598,-2.754 4.082,-1.684 4.441,-0.601 4.317,0.601 4.082,1.684 3.601,2.754 2.637,3.484 1.68,4.078 c 1.738,5.817 10.387,10.149 15.242,11.043 l 5.039,2.039 4.32,3.356 3.36,4.324 2.039,5.039 0.722,5.281 -0.722,5.399 -11.039,-2.879 0.359,-2.52 -0.359,-2.398 -0.961,-2.285 -1.438,-1.918 -1.922,-1.438 -2.277,-0.961 -2.402,-0.359 -2.52,0.359 -2.16,0.961 -2.039,1.438 -1.441,1.918 -0.957,2.285 -0.243,2.398 0.243,2.52 0.957,2.16 1.441,2.039 2.039,1.438 2.16,0.961 2.52,0.238 2.402,-0.238 2.879,11.039 -5.281,0.722 -5.399,-0.722 -5.039,-2.157 -4.32,-3.242 -3.242,-4.316 -2.16,-5.043 c -2.184,-7.863 -8.364,-14.563 -14.641,-17.281 l -3.598,-2.762 -103.441,0 -3.598,2.762 -4.082,1.683 -4.32,0.598 -4.438,-0.598 -4.082,-1.683 -3.601,-2.762 -2.637,-3.477 -1.68,-4.078 -0.601,-4.445 0.601,-4.438 1.68,-4.078 z"
           style="fill:none;stroke:#000000;stroke-width:1.00000012;stroke-linecap:round;stroke-linejoin:round;stroke-miterlimit:4;stroke-dasharray:none;stroke-opacity:1"
           id="path4196"
           inkscape:connector-curvature="0" /></g></g><g
       id="g4354"
       transform="matrix(-1,0,0,-1,478.9306,1000.2739)"
       style="stroke-width:1.00000012;stroke-miterlimit:4;stroke-dasharray:none"><g
         id="g4198"
         transform="matrix(1,0,0,-0.976229,0,378.0585)"
         style="stroke:#000000;stroke-width:1.01210181;stroke-miterlimit:4;stroke-dasharray:none;stroke-opacity:1"><path
           d="m 404.516,71.2 c 0,2.381 -1.883,4.31 -4.203,4.31 -2.325,0 -4.208,-1.929 -4.208,-4.31 0,-2.376 1.883,-4.305 4.208,-4.305 2.32,0 4.203,1.929 4.203,4.305 z"
           style="fill:none;stroke:#000000;stroke-width:1.01210181;stroke-linecap:butt;stroke-linejoin:miter;stroke-miterlimit:4;stroke-dasharray:none;stroke-opacity:1"
           id="path4200"
           inkscape:connector-curvature="0" /></g><g
         id="g4202"
         transform="matrix(0,1,-1,0,0,378.0585)"
         style="stroke:#000000;stroke-width:1.00000012;stroke-miterlimit:4;stroke-dasharray:none;stroke-opacity:1"><path
           d="m -209.113,-388.328 -2.641,-3.485 -1.797,-4.078 -0.48,-4.437 0.48,-4.445 1.797,-4.075 2.641,-3.48 3.48,-2.762 4.199,-1.683 4.321,-0.594 4.441,0.594 4.078,1.683 3.481,2.762 103.562,0 3.477,-2.762 4.203,-1.683 4.32,-0.594 4.438,0.594 4.082,1.683 3.48,2.762 2.758,3.48 1.68,4.075 0.601,4.445 -0.601,4.437 -1.68,4.078 -2.758,3.485 -3.48,2.754 -4.082,1.683 -4.438,0.602 -4.32,-0.602 -4.203,-1.683 -3.477,-2.754 -103.562,0 -3.481,2.754 -4.078,1.683 -4.441,0.602 -4.321,-0.602 -4.199,-1.683 -3.48,-2.754 z"
           style="fill:none;stroke:#000000;stroke-width:1.00000012;stroke-linecap:round;stroke-linejoin:round;stroke-miterlimit:4;stroke-dasharray:none;stroke-opacity:1"
           id="path4204"
           inkscape:connector-curvature="0" /></g><g
         id="g4206"
         transform="matrix(1,0,0,-0.976229,0,378.0585)"
         style="stroke:#000000;stroke-width:1.01210181;stroke-miterlimit:4;stroke-dasharray:none;stroke-opacity:1"><path
           d="m 404.492,201.909 c 0,2.381 -1.883,4.309 -4.207,4.309 -2.32,0 -4.203,-1.928 -4.203,-4.309 0,-2.377 1.883,-4.306 4.203,-4.306 2.324,0 4.207,1.929 4.207,4.306 z"
           style="fill:none;stroke:#000000;stroke-width:1.01210181;stroke-linecap:butt;stroke-linejoin:miter;stroke-miterlimit:4;stroke-dasharray:none;stroke-opacity:1"
           id="path4208"
           inkscape:connector-curvature="0" /></g></g><g
       id="g4392"
       transform="matrix(0,1,-1,0,180.03612,259.88327)"
       style="stroke-width:1.00000012;stroke-miterlimit:4;stroke-dasharray:none"><path
         d="m 352.301,138.91 c 5.992,0.25 10.773,5.191 10.773,11.25 0,6.215 -5.031,11.25 -11.25,11.25 -6.215,0 -11.25,-5.035 -11.25,-11.25 0,-5.957 4.621,-10.828 10.477,-11.226"
         style="fill:none;stroke:#000000;stroke-width:1.00000012;stroke-linecap:butt;stroke-linejoin:miter;stroke-miterlimit:4;stroke-dasharray:none;stroke-opacity:1"
         id="path4220"
         inkscape:connector-curvature="0" /><path
         d="m 355.766,150.207 c 0,-2.16 -1.754,-3.914 -3.914,-3.914 -2.161,0 -3.914,1.754 -3.914,3.914 0,2.16 1.753,3.914 3.914,3.914 2.16,0 3.914,-1.754 3.914,-3.914 z"
         style="fill:none;stroke:#000000;stroke-width:1.00000012;stroke-linecap:butt;stroke-linejoin:miter;stroke-miterlimit:4;stroke-dasharray:none;stroke-opacity:1"
         id="path4222"
         inkscape:connector-curvature="0" /></g><g
       id="g4388"
       transform="matrix(0,1,-1,0,180.03612,259.88327)"
       style="stroke-width:1.00000012;stroke-miterlimit:4;stroke-dasharray:none"><path
         d="m 378.734,142.137 c 5.996,0.25 10.774,5.191 10.774,11.25 0,6.214 -5.031,11.25 -11.25,11.25 -6.215,0 -11.25,-5.036 -11.25,-11.25 0,-5.957 4.621,-10.825 10.476,-11.227"
         style="fill:none;stroke:#000000;stroke-width:1.00000012;stroke-linecap:butt;stroke-linejoin:miter;stroke-miterlimit:4;stroke-dasharray:none;stroke-opacity:1"
         id="path4224"
         inkscape:connector-curvature="0" /><path
         d="m 382.199,153.434 c 0,-2.161 -1.754,-3.911 -3.914,-3.911 -2.16,0 -3.914,1.75 -3.914,3.911 0,2.16 1.754,3.914 3.914,3.914 2.16,0 3.914,-1.754 3.914,-3.914 z"
         style="fill:none;stroke:#000000;stroke-width:1.00000012;stroke-linecap:butt;stroke-linejoin:miter;stroke-miterlimit:4;stroke-dasharray:none;stroke-opacity:1"
         id="path4226"
         inkscape:connector-curvature="0" /></g><g
       id="g4396"
       transform="matrix(0,1,-1,0,218.21206,387.78475)"
       style="stroke-width:1.00000012;stroke-miterlimit:4;stroke-dasharray:none"><path
         d="m 223.547,148.144 c 5.992,0.25 10.773,5.192 10.773,11.25 0,6.215 -5.031,11.25 -11.25,11.25 -6.215,0 -11.25,-5.035 -11.25,-11.25 0,-5.957 4.621,-10.824 10.477,-11.226"
         style="fill:none;stroke:#000000;stroke-width:1.00000012;stroke-linecap:butt;stroke-linejoin:miter;stroke-miterlimit:4;stroke-dasharray:none;stroke-opacity:1"
         id="path4228"
         inkscape:connector-curvature="0" /><path
         d="m 227.012,159.441 c 0,-2.16 -1.754,-3.91 -3.914,-3.91 -2.16,0 -3.914,1.75 -3.914,3.91 0,2.16 1.754,3.914 3.914,3.914 2.16,0 3.914,-1.754 3.914,-3.914 z"
         style="fill:none;stroke:#000000;stroke-width:1.00000012;stroke-linecap:butt;stroke-linejoin:miter;stroke-miterlimit:4;stroke-dasharray:none;stroke-opacity:1"
         id="path4230"
         inkscape:connector-curvature="0" /></g><g
       id="g4400"
       transform="matrix(0,1,-1,0,194.8489,393.30695)"
       style="stroke-width:1.00000012;stroke-miterlimit:4;stroke-dasharray:none"><path
         d="m 223.145,97.684 c 5.996,0.25 10.777,5.191 10.777,11.25 0,6.214 -5.035,11.25 -11.25,11.25 -6.219,0 -11.25,-5.036 -11.25,-11.25 0,-5.958 4.621,-10.829 10.473,-11.227"
         style="fill:none;stroke:#000000;stroke-width:1.00000012;stroke-linecap:butt;stroke-linejoin:miter;stroke-miterlimit:4;stroke-dasharray:none;stroke-opacity:1"
         id="path4232"
         inkscape:connector-curvature="0" /><path
         d="m 226.609,108.98 c 0,-2.16 -1.75,-3.914 -3.914,-3.914 -2.16,0 -3.91,1.754 -3.91,3.914 0,2.161 1.75,3.914 3.91,3.914 2.164,0 3.914,-1.753 3.914,-3.914 z"
         style="fill:none;stroke:#000000;stroke-width:1.00000012;stroke-linecap:butt;stroke-linejoin:miter;stroke-miterlimit:4;stroke-dasharray:none;stroke-opacity:1"
         id="path4234"
         inkscape:connector-curvature="0" /></g><g
       style="stroke:#000000;stroke-width:1.00007308;stroke-miterlimit:4;stroke-dasharray:none;stroke-opacity:1"
       transform="matrix(0,0.999854,1,0,39.809296,608.20685)"
       id="g4240"><path
         inkscape:connector-curvature="0"
         id="path4242"
         style="fill:none;stroke:#000000;stroke-width:1.00007308;stroke-linecap:butt;stroke-linejoin:miter;stroke-miterlimit:4;stroke-dasharray:none;stroke-opacity:1"
         d="m 22.703,99.133 c 0,2.008 -1.63,3.633 -3.634,3.633 -2.008,0 -3.633,-1.625 -3.633,-3.633 0,-2.004 1.625,-3.633 3.633,-3.633 2.004,0 3.634,1.629 3.634,3.633 z" /></g><g
       style="stroke:#000000;stroke-width:1.00007308;stroke-miterlimit:4;stroke-dasharray:none;stroke-opacity:1"
       transform="matrix(0,0.999854,1,0,39.809296,608.20685)"
       id="g4244"><path
         inkscape:connector-curvature="0"
         id="path4246"
         style="fill:none;stroke:#000000;stroke-width:1.00007308;stroke-linecap:butt;stroke-linejoin:miter;stroke-miterlimit:4;stroke-dasharray:none;stroke-opacity:1"
         d="m 100.722,99.105 c 0,2.008 -1.626,3.633 -3.634,3.633 -2.004,0 -3.633,-1.625 -3.633,-3.633 0,-2.003 1.629,-3.632 3.633,-3.632 2.008,0 3.634,1.629 3.634,3.632 z" /></g><g
       style="stroke:#000000;stroke-width:1.00007308;stroke-miterlimit:4;stroke-dasharray:none;stroke-opacity:1"
       transform="matrix(0,0.999854,1,0,39.809296,608.20685)"
       id="g4248"><path
         inkscape:connector-curvature="0"
         id="path4250"
         style="fill:none;stroke:#000000;stroke-width:1.00007308;stroke-linecap:butt;stroke-linejoin:miter;stroke-miterlimit:4;stroke-dasharray:none;stroke-opacity:1"
         d="m 126.643,98.934 c 0,2.007 -1.629,3.632 -3.633,3.632 -2.008,0 -3.633,-1.625 -3.633,-3.632 0,-2.008 1.625,-3.633 3.633,-3.633 2.004,0 3.633,1.625 3.633,3.633 z" /></g><g
       style="stroke:#000000;stroke-width:1.00007308;stroke-miterlimit:4;stroke-dasharray:none;stroke-opacity:1"
       transform="matrix(0,0.999854,1,0,39.809296,608.20685)"
       id="g4252"><path
         inkscape:connector-curvature="0"
         id="path4254"
         style="fill:none;stroke:#000000;stroke-width:1.00007308;stroke-linecap:butt;stroke-linejoin:miter;stroke-miterlimit:4;stroke-dasharray:none;stroke-opacity:1"
         d="m 204.667,98.906 c 0,2.008 -1.63,3.633 -3.638,3.633 -2.004,0 -3.633,-1.625 -3.633,-3.633 0,-2.008 1.629,-3.633 3.633,-3.633 2.008,0 3.638,1.625 3.638,3.633 z" /></g><rect
       style="opacity:1;fill:none;fill-opacity:1;fill-rule:nonzero;stroke:#000000;stroke-width:1.00000012;stroke-linecap:round;stroke-linejoin:round;stroke-miterlimit:4;stroke-dasharray:none;stroke-dashoffset:0;stroke-opacity:1"
       id="rect4219"
       width="247.40459"
       height="233.81149"
       x="110.73113"
       y="-831.81873"
       transform="scale(1,-1)" /><g
       id="g4211"><g
         id="g4182"
         transform="matrix(0,-1,1,0,466.72631,223.25371)"
         style="stroke:#000000;stroke-width:1.00000012;stroke-miterlimit:4;stroke-dasharray:none;stroke-opacity:1"><path
           d="m -371.586,-394.445 -0.602,-4.317 0.602,-4.441 1.68,-4.082 2.761,-3.477 3.477,-2.761 4.082,-1.68 4.441,-0.602 4.438,0.602 4.082,1.68 3.48,2.761 75.118,0 3.601,-2.761 4.078,-1.68 4.442,-0.602 4.32,0.602 4.199,1.68 3.481,2.761 2.64,3.477 1.801,4.082 0.481,4.441 -0.481,4.317 -1.801,4.203 -2.64,3.48 -3.481,2.758 -4.199,1.68 -4.32,0.601 -4.442,-0.601 -4.078,-1.68 -3.601,-2.758 -75.118,0 -3.48,2.758 -4.082,1.68 -4.438,0.601 -4.441,-0.601 -4.082,-1.68 -3.477,-2.758 -2.761,-3.48 -1.68,-4.203 z"
           style="fill:none;stroke:#000000;stroke-width:1.00000012;stroke-linecap:round;stroke-linejoin:round;stroke-miterlimit:4;stroke-dasharray:none;stroke-opacity:1"
           id="path4184"
           inkscape:connector-curvature="0" /></g><g
         id="g4210"
         transform="matrix(-1,0,0,0.976229,466.72631,223.25371)"
         style="stroke:#000000;stroke-width:1.01210177;stroke-miterlimit:4;stroke-dasharray:none;stroke-opacity:1"><path
           d="m 403.008,262.158 c 0,2.376 -1.883,4.305 -4.207,4.305 -2.321,0 -4.203,-1.929 -4.203,-4.305 0,-2.381 1.882,-4.31 4.203,-4.31 2.324,0 4.207,1.929 4.207,4.31 z"
           style="fill:none;stroke:#000000;stroke-width:1.01210177;stroke-linecap:butt;stroke-linejoin:miter;stroke-miterlimit:4;stroke-dasharray:none;stroke-opacity:1"
           id="path4212"
           inkscape:connector-curvature="0" /></g><path
         d="m 64.23031,548.33221 c 0.07,-1.946 1.664,-3.5 3.625,-3.5 1.965,0 3.531,1.554 3.601,3.5 l 0.024,11.324 c 0,2.008 -1.617,3.625 -3.625,3.625 -2.004,0 -3.649,-1.617 -3.649,-3.625 l 0.024,-11.324 z"
         style="fill:none;stroke:#000000;stroke-width:1.00000012;stroke-linecap:butt;stroke-linejoin:miter;stroke-miterlimit:4;stroke-dasharray:none;stroke-opacity:1"
         id="path4278"
         inkscape:connector-curvature="0" /><g
         style="stroke:#000000;stroke-width:1.01210177;stroke-miterlimit:4;stroke-dasharray:none;stroke-opacity:1"
         transform="matrix(-1,0,0,0.976229,466.72631,322.46891)"
         id="g4195"><path
           inkscape:connector-curvature="0"
           id="path4197"
           style="fill:none;stroke:#000000;stroke-width:1.01210177;stroke-linecap:butt;stroke-linejoin:miter;stroke-miterlimit:4;stroke-dasharray:none;stroke-opacity:1"
           d="m 403.008,262.158 c 0,2.376 -1.883,4.305 -4.207,4.305 -2.321,0 -4.203,-1.929 -4.203,-4.305 0,-2.381 1.882,-4.31 4.203,-4.31 2.324,0 4.207,1.929 4.207,4.31 z" /></g></g><g
       id="g4220"><g
         id="g4164"
         transform="matrix(0,-1,1,0,466.72631,223.25371)"
         style="stroke:#000000;stroke-width:1.00000012;stroke-miterlimit:4;stroke-dasharray:none;stroke-opacity:1"><path
           d="m -261.836,-433.871 -0.242,-1.082 0.242,-1.078 0.359,-1.082 0.719,-0.84 0.84,-0.719 0.961,-0.359 1.078,-0.121 1.203,0.121 0.957,0.359 0.84,0.719 0.723,0.84 0.359,1.082 0.238,1.078 -0.238,1.082 -0.359,0.961 -0.723,0.957 -0.84,0.601 -0.957,0.481 -1.203,0.117 -1.078,-0.117 -0.961,-0.481 -0.84,-0.601 -0.719,-0.957 -0.359,-0.961 z"
           style="fill:none;stroke:#000000;stroke-width:1.00000012;stroke-linecap:round;stroke-linejoin:round;stroke-miterlimit:4;stroke-dasharray:none;stroke-opacity:1"
           id="path4166"
           inkscape:connector-curvature="0" /></g><g
         id="g4174"
         transform="matrix(0,-1,1,0,466.72631,223.25371)"
         style="stroke:#000000;stroke-width:1.00000012;stroke-miterlimit:4;stroke-dasharray:none;stroke-opacity:1"><path
           d="m -373.438,-439.391 1.68,-4.082 2.762,-3.48 3.476,-2.758 4.082,-1.68 4.442,-0.601 4.32,0.601 4.199,1.68 3.481,2.758 75.117,0 3.602,-2.758 4.078,-1.68 4.32,-0.601 4.441,0.601 4.079,1.68 3.601,2.758 2.641,3.48 1.679,4.082 0.602,4.438 -0.602,4.32 -1.679,4.199 -2.641,3.481 -3.601,2.762 -4.079,1.679 -4.441,0.602 -4.32,-0.602 -4.078,-1.679 -3.602,-2.762 -75.117,0 -3.481,2.762 -4.199,1.679 -4.32,0.602 -4.442,-0.602 -4.082,-1.679 -3.476,-2.762 -2.762,-3.481 -1.68,-4.199 -0.601,-4.32 0.601,-4.438 z"
           style="fill:none;stroke:#000000;stroke-width:1.00000012;stroke-linecap:round;stroke-linejoin:round;stroke-miterlimit:4;stroke-dasharray:none;stroke-opacity:1"
           id="path4176"
           inkscape:connector-curvature="0" /></g><path
         d="m 27.98431,548.53521 c 0.07,-1.946 1.664,-3.5 3.625,-3.5 1.965,0 3.531,1.554 3.601,3.5 l 0.024,11.324 c 0,2.008 -1.617,3.625 -3.625,3.625 -2.004,0 -3.649,-1.617 -3.649,-3.625 l 0.024,-11.324 z"
         style="fill:none;stroke:#000000;stroke-width:1.00000012;stroke-linecap:butt;stroke-linejoin:miter;stroke-miterlimit:4;stroke-dasharray:none;stroke-opacity:1"
         id="path4276"
         inkscape:connector-curvature="0" /><g
         style="stroke:#000000;stroke-width:1.00000012;stroke-miterlimit:4;stroke-dasharray:none;stroke-opacity:1"
         transform="matrix(0,-1,1,0,466.72631,322.46891)"
         id="g4207"><path
           inkscape:connector-curvature="0"
           id="path4209"
           style="fill:none;stroke:#000000;stroke-width:1.00000012;stroke-linecap:round;stroke-linejoin:round;stroke-miterlimit:4;stroke-dasharray:none;stroke-opacity:1"
           d="m -261.836,-433.871 -0.242,-1.082 0.242,-1.078 0.359,-1.082 0.719,-0.84 0.84,-0.719 0.961,-0.359 1.078,-0.121 1.203,0.121 0.957,0.359 0.84,0.719 0.723,0.84 0.359,1.082 0.238,1.078 -0.238,1.082 -0.359,0.961 -0.723,0.957 -0.84,0.601 -0.957,0.481 -1.203,0.117 -1.078,-0.117 -0.961,-0.481 -0.84,-0.601 -0.719,-0.957 -0.359,-0.961 z" /></g></g></g></svg>